<?xml version="1.0" standalone="no"?><!DOCTYPE svg PUBLIC "-//W3C//DTD SVG 1.1//EN" "http://www.w3.org/Graphics/SVG/1.1/DTD/svg11.dtd"><svg t="1749714920073" class="icon" viewBox="0 0 1024 1024" version="1.1" xmlns="http://www.w3.org/2000/svg" p-id="1006" xmlns:xlink="http://www.w3.org/1999/xlink" width="200" height="200"><path d="M94 776.17c20.67 2.76 145.58-62.41 145.58-62.41l98.81-166.23-22.4-195.59 108.62-82.55 16.75-151.1 147.33-28.05 46.92 147.56 153.48 42.02 101.53 126.83-64.05 58.02 49.12 94.96 47.29 87.12-31.84 68.43-100.71 27.7-3.53 72.46-55.27-11.93-83.97-30.9-119.57-55.63-0.16 0.3-180.83 81.96-117.93 124.5-135.2-147.46z" fill="#3EC13E" p-id="1007"></path><path d="M539.53 317.86l-13.59 144.91-48.7 109.33-82.22-98.73 81.52 138.38 25.92-25.18 49.91-112.03-12.84-156.68zM777.65 608.04l-133.56-5.86-105.6 30.56 79.5 87.23-115.66-91.58 26.17-20.42 108.2-31.32 140.95 31.39z" fill="#FFFFFF" p-id="1008"></path></svg>